<?xml version="1.0" encoding="utf-8"?>
<!-- Generator: Adobe Illustrator 15.0.0, SVG Export Plug-In  -->
<!DOCTYPE svg PUBLIC "-//W3C//DTD SVG 1.1//EN" "http://www.w3.org/Graphics/SVG/1.1/DTD/svg11.dtd" [
	<!ENTITY ns_flows "http://ns.adobe.com/Flows/1.0/">
]>
<svg version="1.1"
	 xmlns="http://www.w3.org/2000/svg" xmlns:xlink="http://www.w3.org/1999/xlink" xmlns:a="http://ns.adobe.com/AdobeSVGViewerExtensions/3.0/"
	 x="0px" y="0px" width="565px" height="185px" viewBox="-0.998 -0.424 565 185" enable-background="new -0.998 -0.424 565 185"
	 xml:space="preserve">
<defs>
</defs>
<path fill="#F7F7F7" stroke="#FFFFFF" stroke-miterlimit="10" d="M152.875,20.519L152.875,20.519c0,0-23.533,3.965-24.03,4.052
	v2.224c0.13,0.043,0.281,0.094,0.281,0.094c1.511,0.525,2.886,1.252,2.886,4.174v72.658c0,0.373,0.216,0.719,0.562,0.885
	l1.036,0.547c5.527,2.828,15.754,8.09,28.197,8.09c20.698,0,35.163-14.063,35.163-34.177c0-15.408-10.125-31.35-27.052-31.35
	c-6.117,0-10.853,1.375-15.351,4.463l-0.489,0.309V21.498c0-0.295-0.13-0.583-0.367-0.771c-0.23-0.194-0.533-0.28-0.842-0.216
	 M154.2,101.785l-0.122-0.102v-40.33l0.101-0.08c1.835-1.662,3.886-2.338,6.851-2.338c4.131,0,13.753,1.986,13.753,20.51
	c0,18.525-8.895,24.419-14.163,24.419c-3.339,0-5.462-1.311-6.419-2.074 M24.479,47.485h0.014c0,0-23.483,4.087-23.994,4.181v1.85
	c0.144,0.051,0.281,0.102,0.281,0.102c1.835,0.611,3.519,1.626,3.519,4.8l-0.021,89.059c0,0.309,0.137,0.59,0.374,0.764
	c0.23,0.207,0.533,0.295,0.828,0.229c0,0,1.173-0.18,23.749-3.994v-1.986c-0.137-0.086-0.245-0.121-0.245-0.121
	c-0.755-0.311-3.224-1.533-3.238-4.605l-0.029-26.479l0.417,0.166c2.353,0.885,5.563,1.814,11.493,1.814
	c19.863,0,32.147-17.416,32.147-33.544c0-20.77-14.609-31.982-28.348-31.982c-7.312,0-12.299,2.556-15.221,4.707l-0.504,0.367
	v-4.318c0-0.302-0.137-0.582-0.36-0.784c-0.23-0.194-0.547-0.267-0.849-0.216 M25.796,100.619l-0.108-0.094V62.908l0.108-0.087
	c2.08-1.763,4.491-3.39,8.154-3.39c6.714,0,13.487,6.621,13.487,21.432c0,10.932-3.857,22.613-14.66,22.613
	C29.309,103.476,27.344,101.992,25.796,100.619 M76.044,66.412c0,8.557,3.778,13.754,14.386,19.855l4.016,2.26
	c6.606,3.678,8.801,4.902,8.801,8.478c0,2.281-1.972,6.592-9.428,6.592c-7.456,0-13.731-8.27-15.775-16.422
	c0,0-0.021-0.158-0.058-0.316h-2.188c0.007,0.597,0.245,20.223,0.245,20.223c0,0.367,0.223,0.705,0.547,0.877
	c6.765,3.605,13.4,5.289,20.899,5.289c11.004,0,26.513-6.354,26.513-20.502c0-12.263-9.794-17.525-18.445-22.181l0.058-0.028
	c-0.187-0.05-0.518-0.202-1.281-0.604c-5.002-2.555-8.953-4.57-8.953-8.154c0-1.972,1.015-5.297,7.859-5.297
	c6.844,0,11.327,8.809,13.415,14.063c0,0,0.05,0.123,0.108,0.252h2.267c-0.022-0.598-0.504-19.625-0.504-19.625
	c-0.021-0.446-0.317-0.82-0.741-0.936c-6.211-1.842-13.213-2.504-16.387-2.504c-18.704,0-25.361,10.067-25.361,18.689"/>
<path fill="#F7F7F7" stroke="#FFFFFF" stroke-miterlimit="10" d="M59.808,134.91l2.461,15.633h-5.045L59.808,134.91z
	 M57.505,126.462l-6.851,36.523h4.333l1.533-8.385h6.47l1.482,8.385h4.664l-6.801-36.523H57.505z"/>
<path fill="#F7F7F7" stroke="#FFFFFF" stroke-miterlimit="10" d="M80.11,163.648c-5.592,0-8.55-3.951-8.55-8.773V134.58
	c0-4.771,2.958-8.773,8.55-8.773s8.334,3.678,8.334,8.449v4.988h-4.059v-5.096c0-2.469-1.425-4.168-4.109-4.168
	s-4.167,1.758-4.167,4.002v21.504c0,2.303,1.425,4.002,4.167,4.002c2.742,0,4.109-1.648,4.109-4.168v-5.16h4.059v5.045
	c0,4.771-2.735,8.449-8.334,8.449"/>
<path fill="#F7F7F7" stroke="#FFFFFF" stroke-miterlimit="10" d="M99.843,134.91l2.461,15.633H97.26L99.843,134.91z M97.54,126.462
	l-6.858,36.523h4.333l1.526-8.385h6.477l1.482,8.385h4.664l-6.801-36.523H97.54z"/>
<path fill="#F7F7F7" stroke="#FFFFFF" stroke-miterlimit="10" d="M121.102,162.986h-8.722v-36.523h8.722
	c5.757,0,8.226,3.563,8.226,8.938v18.646c0,5.369-2.469,8.932-8.226,8.932 M124.78,135.408c0-3.074-1.159-4.664-3.894-4.664h-3.894
	v27.967h3.894c2.735,0,3.894-1.592,3.894-4.605V135.4V135.408z"/>
<polygon fill="#F7F7F7" stroke="#FFFFFF" stroke-miterlimit="10" points="133.33,126.462 133.33,162.986 147.644,162.986 
	147.644,158.826 137.885,158.826 137.885,145.986 144.959,145.986 144.959,141.986 137.885,141.986 137.885,130.636 
	147.644,130.636 147.644,126.462 "/>
<polygon fill="#F7F7F7" stroke="#FFFFFF" stroke-miterlimit="10" points="168.291,126.462 164.232,149.117 163.081,155.802 
	161.872,149.167 157.762,126.462 151.285,126.462 151.285,162.986 155.351,162.986 155.351,134.968 156.553,141.597 160.72,162.986 
	165.11,162.986 169.277,141.597 170.486,134.968 170.486,162.986 174.653,162.986 174.653,126.462 "/>
<polygon fill="#F7F7F7" stroke="#FFFFFF" stroke-miterlimit="10" points="192.328,126.462 187.391,143.41 182.454,126.462 
	177.74,126.462 184.922,148.455 184.922,162.986 189.471,162.986 189.471,148.455 196.819,126.462 "/>
<rect x="255.097" y="1.613" fill="#F7F7F7" stroke="#FFFFFF" stroke-miterlimit="10" width="1.087" height="180.917"/>
<path fill="#F7F7F7" stroke="#FFFFFF" stroke-miterlimit="10" d="M376.405,183.646c33.055-0.33,59.884-27.16,60.215-60.215h-37.639
	l-22.583,32.4v27.814H376.405z"/>
<path fill="#F7F7F7" stroke="#FFFFFF" stroke-miterlimit="10" d="M314.945,123.425c0.331,33.055,27.161,59.883,60.215,60.215
	v-28.787l-23.979-31.436h-36.235V123.425z"/>
<path fill="#F7F7F7" stroke="#FFFFFF" stroke-miterlimit="10" d="M406.574,112.542l-6.715,9.637h36.769
	c-0.331-33.054-27.161-59.883-60.215-60.214V96.22h14.437L406.574,112.542z"/>
<path fill="#F7F7F7" stroke="#FFFFFF" stroke-miterlimit="10" d="M375.16,0.505c-33.054,0.331-59.884,27.161-60.215,60.215h60.215
	V0.505z"/>
<polygon fill="#F7F7F7" stroke="#FFFFFF" stroke-miterlimit="10" points="358.564,96.22 375.16,96.22 375.16,61.965 314.945,61.965 
	314.945,122.179 350.231,122.179 342.861,112.521 "/>
<path fill="#F7F7F7" stroke="#FFFFFF" stroke-miterlimit="10" d="M502.283,183.646c33.055-0.33,59.884-27.16,60.215-60.215h-60.215
	V183.646z"/>
<path fill="#F7F7F7" stroke="#FFFFFF" stroke-miterlimit="10" d="M501.038,183.646v-60.215h-60.215
	C441.154,156.486,467.983,183.316,501.038,183.646z"/>
<path fill="#F7F7F7" stroke="#FFFFFF" stroke-miterlimit="10" d="M502.283,0.505V60.72h60.215
	C562.167,27.666,535.337,0.836,502.283,0.505z"/>
<path fill="#F7F7F7" stroke="#FFFFFF" stroke-miterlimit="10" d="M440.823,60.72h60.215V0.505
	C467.983,0.836,441.154,27.666,440.823,60.72z"/>
<rect x="440.823" y="61.965" fill="#F7F7F7" stroke="#FFFFFF" stroke-miterlimit="10" width="60.222" height="60.222"/>
<rect x="502.283" y="61.965" fill="#F7F7F7" stroke="#FFFFFF" stroke-miterlimit="10" width="60.222" height="60.222"/>
<polygon fill="#F7F7F7" stroke="#FFFFFF" stroke-miterlimit="10" points="376.405,122.179 376.405,96.22 375.16,96.22 
	375.16,122.179 350.231,122.179 351.181,123.425 375.16,123.425 375.16,154.859 376.167,156.177 376.405,155.832 376.405,123.425 
	398.989,123.425 399.852,122.179 "/>
</svg>
